<?xml version="1.0" encoding="UTF-8" standalone="no"?>
<svg
   xmlns:dc="http://purl.org/dc/elements/1.1/"
   xmlns:cc="http://creativecommons.org/ns#"
   xmlns:rdf="http://www.w3.org/1999/02/22-rdf-syntax-ns#"
   xmlns:svg="http://www.w3.org/2000/svg"
   xmlns="http://www.w3.org/2000/svg"
   xmlns:xlink="http://www.w3.org/1999/xlink"
   xmlns:sodipodi="http://sodipodi.sourceforge.net/DTD/sodipodi-0.dtd"
   xmlns:inkscape="http://www.inkscape.org/namespaces/inkscape"
   viewBox="0 0 1548.488 813.58923"
   version="1.1"
   id="svg90"
   sodipodi:docname="voronoi_distances.svg"
   width="1548.488"
   height="813.58923"
   inkscape:version="0.92.2 5c3e80d, 2017-08-06">
  <metadata
     id="metadata94">
    <rdf:RDF>
      <cc:Work
         rdf:about="">
        <dc:format>image/svg+xml</dc:format>
        <dc:type
           rdf:resource="http://purl.org/dc/dcmitype/StillImage" />
        <dc:title />
      </cc:Work>
    </rdf:RDF>
  </metadata>
  <sodipodi:namedview
     pagecolor="#ffffff"
     bordercolor="#666666"
     borderopacity="1"
     objecttolerance="10"
     gridtolerance="10"
     guidetolerance="10"
     inkscape:pageopacity="0"
     inkscape:pageshadow="2"
     inkscape:window-width="1440"
     inkscape:window-height="856"
     id="namedview92"
     showgrid="false"
     showguides="false"
     fit-margin-top="20"
     fit-margin-left="20"
     fit-margin-right="20"
     fit-margin-bottom="20"
     inkscape:zoom="0.67428572"
     inkscape:cx="714.00253"
     inkscape:cy="430.32467"
     inkscape:window-x="0"
     inkscape:window-y="0"
     inkscape:window-maximized="0"
     inkscape:current-layer="svg90" />
  <defs
     id="defs5">
    <linearGradient
       id="b"
       gradientTransform="matrix(1.1288,0,0,1.1288,-20.72,3532.2)">
      <stop
         offset="0"
         id="stop2" />
    </linearGradient>
    <linearGradient
       gradientTransform="matrix(1.1288,0,0,1.1288,-20.72,7532.2)"
       id="b-7">
      <stop
         id="stop3917"
         offset="0" />
    </linearGradient>
    <linearGradient
       inkscape:collect="always"
       xlink:href="#b"
       id="linearGradient105"
       gradientUnits="userSpaceOnUse"
       x1="162.00999"
       y1="254.03"
       x2="170.00999"
       y2="254.03" />
    <linearGradient
       inkscape:collect="always"
       xlink:href="#b-7"
       id="linearGradient107"
       gradientUnits="userSpaceOnUse"
       x1="162.00999"
       y1="254.03"
       x2="170.00999"
       y2="254.03" />
  </defs>
  <g
     transform="translate(20.25,-106.66075)"
     id="g47"
     style="stroke-width:0.5;stroke-linecap:round;stroke-linejoin:round">
    <path
       d="M 0,200 H 83.26 L 199.57,334.34 47.67,416.97 0,430.95 Z"
       id="path7"
       inkscape:connector-curvature="0"
       style="fill:#576fd5;stroke:#576fd5" />
    <path
       d="M 83.26,200 H 235.8 l 5.7201,124.17 -41.948,10.169 z"
       id="path9"
       inkscape:connector-curvature="0"
       style="fill:#a8b032;stroke:#a8b032" />
    <path
       d="m 235.8,200 h 133.47 l -88.98,112.1 -29.236,17.796 -9.5336,-5.7201 z"
       id="path11"
       inkscape:connector-curvature="0"
       style="fill:#de3b66;stroke:#de3b66" />
    <path
       d="m 280.29,312.1 -29.236,17.796 36.863,53.388 27.33,20.338 320.33,-203.63 h -57.519 z"
       id="path13"
       inkscape:connector-curvature="0"
       style="fill:#b21925;stroke:#b21925" />
    <path
       d="M 369.27,200 H 578.06 L 280.3,312.1 Z"
       id="path15"
       inkscape:connector-curvature="0"
       style="fill:#dba93d;stroke:#dba93d" />
    <path
       d="m 315.24,403.62 25.423,95.336 143.64,31.779 167.16,-330.74 h -15.889 z"
       id="path17"
       inkscape:connector-curvature="0"
       style="fill:#c674a7;stroke:#c674a7" />
    <path
       d="M 651.46,200 H 700 v 126.72 l -72.691,278.38 -98.513,19.703 -19.703,-20.338 -24.787,-73.726 z"
       id="path19"
       inkscape:connector-curvature="0"
       style="fill:#aff7f4;stroke:#aff7f4" />
    <path
       d="M 700,326.72 V 617.81 L 627.309,605.099 Z"
       id="path21"
       inkscape:connector-curvature="0"
       style="fill:#7ad7ec;stroke:#7ad7ec" />
    <path
       d="M 528.8,624.8 556.76,900 H 700 V 617.81 L 627.31,605.1 Z"
       id="path23"
       inkscape:connector-curvature="0"
       style="fill:#0d0f7d;stroke:#0d0f7d" />
    <path
       d="m 509.09,604.46 19.703,20.338 27.97,275.2 h -88.98 l -102.33,-156.99 -5.72,-68.64 z"
       id="path25"
       inkscape:connector-curvature="0"
       style="fill:#4e46f6;stroke:#4e46f6" />
    <path
       d="m 187.49,772.25 -47.032,-43.854 181.14,-75.633 38.134,21.609 5.7201,68.642 z"
       id="path27"
       inkscape:connector-curvature="0"
       style="fill:#ee4dc0;stroke:#ee4dc0" />
    <path
       d="M 365.45,743.01 467.78,900 H 270.75 L 187.49,772.25 Z"
       id="path29"
       inkscape:connector-curvature="0"
       style="fill:#cd6d01;stroke:#cd6d01" />
    <path
       d="m 311.43,565.05 10.169,87.709 38.134,21.609 149.36,-69.913 -24.787,-73.726 -143.64,-31.779 z"
       id="path31"
       inkscape:connector-curvature="0"
       style="fill:#8291ca;stroke:#8291ca" />
    <path
       d="m 62.922,694.71 77.54,33.685 181.14,-75.633 -10.169,-87.709 -146.82,43.854 z"
       id="path33"
       inkscape:connector-curvature="0"
       style="fill:#7850db;stroke:#7850db" />
    <path
       d="m 221.81,507.22 -57.201,101.69 146.82,-43.854 29.236,-66.099 z"
       id="path35"
       inkscape:connector-curvature="0"
       style="fill:#1565cf;stroke:#1565cf" />
    <path
       d="m 221.81,507.22 118.85,-8.2624 -25.423,-95.336 -27.33,-20.338 -79.129,62.604 z"
       id="path37"
       inkscape:connector-curvature="0"
       style="fill:#06f121;stroke:#06f121" />
    <path
       d="m 47.668,416.97 161.12,28.918 79.129,-62.604 -36.863,-53.388 -9.5336,-5.7201 -41.948,10.169 z"
       id="path39"
       inkscape:connector-curvature="0"
       style="fill:#5a7083;stroke:#5a7083" />
    <path
       d="M 0,430.95 221.81,507.22 208.79,445.88 47.67,416.97 Z"
       id="path41"
       inkscape:connector-curvature="0"
       style="fill:#44a416;stroke:#44a416" />
    <path
       d="m 0,690.26 62.922,4.449 101.69,-85.8 57.2,-101.69 -221.81,-76.27 z"
       id="path43"
       inkscape:connector-curvature="0"
       style="fill:#e98ec2;stroke:#e98ec2" />
    <path
       d="M 0,900 H 270.75 L 187.49,772.25 140.46,728.4 62.922,694.71 0,690.26 Z"
       id="path45"
       inkscape:connector-curvature="0"
       style="fill:#b6ced5;stroke:#b6ced5" />
  </g>
  <g
     transform="translate(20.25,-104.42075)"
     id="g88">
    <circle
       id="a"
       cy="258.03"
       cx="166.00999"
       r="4"
       style="fill:url(#linearGradient105)" />
    <use
       xlink:href="#a"
       transform="translate(-35.765,31.143)"
       height="100%"
       width="100%"
       y="0"
       x="0"
       id="use50" />
    <use
       xlink:href="#a"
       transform="translate(143.88,-5.9296)"
       height="100%"
       width="100%"
       y="0"
       x="0"
       id="use52" />
    <use
       xlink:href="#a"
       transform="translate(164.18,9.9779)"
       height="100%"
       width="100%"
       y="0"
       x="0"
       id="use54" />
    <use
       xlink:href="#a"
       transform="translate(180.18,53.104)"
       height="100%"
       width="100%"
       y="0"
       x="0"
       id="use56" />
    <use
       xlink:href="#a"
       transform="translate(32.863,154.67)"
       height="100%"
       width="100%"
       y="0"
       x="0"
       id="use58" />
    <use
       xlink:href="#a"
       transform="translate(22.826,212.14)"
       height="100%"
       width="100%"
       y="0"
       x="0"
       id="use60" />
    <use
       xlink:href="#a"
       transform="translate(8.9523,253.02)"
       height="100%"
       width="100%"
       y="0"
       x="0"
       id="use62" />
    <use
       xlink:href="#a"
       transform="translate(70.055,204.11)"
       height="100%"
       width="100%"
       y="0"
       x="0"
       id="use64" />
    <use
       xlink:href="#a"
       transform="translate(246.07,156.85)"
       height="100%"
       width="100%"
       y="0"
       x="0"
       id="use66" />
    <use
       xlink:href="#a"
       transform="translate(451.98,262.06)"
       height="100%"
       width="100%"
       y="0"
       x="0"
       id="use68" />
    <use
       xlink:href="#a"
       transform="translate(509.12,277.11)"
       height="100%"
       width="100%"
       y="0"
       x="0"
       id="use70" />
    <use
       xlink:href="#a"
       transform="translate(484.12,429.39)"
       height="100%"
       width="100%"
       y="0"
       x="0"
       id="use72" />
    <use
       xlink:href="#a"
       transform="translate(255.19,452.06)"
       height="100%"
       width="100%"
       y="0"
       x="0"
       id="use74" />
    <use
       xlink:href="#a"
       transform="translate(205.01,345)"
       height="100%"
       width="100%"
       y="0"
       x="0"
       id="use76" />
    <use
       xlink:href="#a"
       transform="translate(76.017,291.04)"
       height="100%"
       width="100%"
       y="0"
       x="0"
       id="use78" />
    <use
       xlink:href="#a"
       transform="translate(96,356.89)"
       height="100%"
       width="100%"
       y="0"
       x="0"
       id="use80" />
    <use
       xlink:href="#a"
       transform="translate(139.8,463.01)"
       height="100%"
       width="100%"
       y="0"
       x="0"
       id="use82" />
    <use
       xlink:href="#a"
       transform="translate(149.07,519.77)"
       height="100%"
       width="100%"
       y="0"
       x="0"
       id="use84" />
    <use
       xlink:href="#a"
       transform="translate(-22.954,635.98)"
       height="100%"
       width="100%"
       y="0"
       x="0"
       id="use86" />
  </g>
  <g
     id="g4055"
     transform="translate(827.98704,93.086255)">
    <g
       id="g3962"
       transform="translate(0,-200)"
       style="stroke-linecap:round;stroke-linejoin:round">
      <path
         id="path3922"
         d="m 132.82,200 v 59.265 l 30.889,30.889 v 62.661 h 2.7898 l 32.993,-32.993 h 30.409 v -8.37 l 12.032,-12.032 v -40.48 l -6.2953,-6.2953 v -52.646 z"
         inkscape:connector-curvature="0"
         style="fill:#a8b032;stroke:#a8b032" />
      <path
         id="path3924"
         d="m 235.64,200 h 93.551 v 52.205 l -15.886,15.886 v 28.683 l -2.4744,2.6477 h -68.895 v -40.48 l -6.2953,-6.2953 z"
         inkscape:connector-curvature="0"
         style="fill:#de3b66;stroke:#de3b66" />
      <path
         id="path3926"
         d="m 329.19,200 h 271.89 v 67.936 l -14.236,14.236 h -240.87 l -15.773,15.773 h -17.998 l 1.094,-1.1706 v -28.683 l 15.886,-15.886 z"
         inkscape:connector-curvature="0"
         style="fill:#dba93d;stroke:#dba93d" />
      <path
         id="path3928"
         d="m 229.91,319.82 77.59,77.59 h 39.256 l 66.275,-66.275 h 154.4 l 19.421,-19.421 v -29.547 h -240.87 l -15.773,15.773 h -17.998 l -1.3804,1.4771 h -68.895 l -12.032,12.032 z"
         inkscape:connector-curvature="0"
         style="fill:#b21925;stroke:#b21925" />
      <path
         id="path3930"
         d="m 601.09,200 h 52.95 v 321.41 l -14.905,14.905 v 63.198 l -20.271,20.271 h -81.68 v -16.29 l -74.035,-74.035 v -8.8373 l 104.28,-104.28 v -85.197 l 19.421,-19.421 v -29.547 l 14.236,-14.236 z"
         inkscape:connector-curvature="0"
         style="fill:#aff7f4;stroke:#aff7f4" />
      <path
         id="path3932"
         d="m 700,200 v 423.69 h -24.666 l -25.381,-24.178 -10.82,3.2e-4 v -63.198 l 14.905,-14.905 v -321.41 z"
         inkscape:connector-curvature="0"
         style="fill:#7ad7ec;stroke:#7ad7ec" />
      <path
         id="path3934"
         d="m 307.5,397.41 v 15.855 l -2.3882,2.3882 v 4.2067 l 42.901,42.901 v 26.087 h 23.414 l 40.94,40.605 h 50.783 v -8.8373 l 104.28,-104.28 v -85.197 h -154.4 l -66.275,66.275 z"
         inkscape:connector-curvature="0"
         style="fill:#c674a7;stroke:#c674a7" />
      <path
         id="path3936"
         d="m 348.01,488.85 -14.142,14.142 v 46.373 l -23.273,23.273 v 30.713 l 12.291,12.291 v 30.854 l 35.615,35.61 h 13.066 l 49.869,-49.816 103.07,1e-5 12.681,-12.511 v -16.29 l -74.035,-74.035 h -50.783 l -40.94,-40.605 z"
         inkscape:connector-curvature="0"
         style="fill:#8291ca;stroke:#8291ca" />
      <path
         id="path3938"
         d="m 524.5,632.29 v 55.886 l 22.241,22.241 v 189.58 h 153.26 v -276.31 h -24.666 l -25.381,-24.178 -10.82,3e-4 -20.271,20.271 h -81.68 z"
         inkscape:connector-curvature="0"
         style="fill:#0d0f7d;stroke:#0d0f7d" />
      <path
         id="path3940"
         d="m 358.5,682.11 v 28.036 l 11.303,11.303 v 23.311 l 33.273,33.273 v 121.97 h 143.66 v -189.58 l -22.241,-22.241 v -55.886 l -103.07,-1e-5 -49.869,49.816 z"
         inkscape:connector-curvature="0"
         style="fill:#4e46f6;stroke:#4e46f6" />
      <path
         id="path3942"
         d="m 369.8,744.76 h -54.429 l -8.9158,9.2399 h -134.44 v 24.675 l 115.95,115.95 v 5.3711 h 115.1 v -121.97 z"
         inkscape:connector-curvature="0"
         style="fill:#cd6d01;stroke:#cd6d01" />
      <path
         id="path3944"
         d="M 287.98,900 H 0 V 726.32 h 144.36 l 27.661,27.677 v 24.675 l 115.95,115.95 z"
         inkscape:connector-curvature="0"
         style="fill:#b6ced5;stroke:#b6ced5" />
      <path
         id="path3946"
         d="m 0,726.32 v -35.475 h 262.86 l 43.924,-44.348 h 16.1 l 35.615,35.61 v 28.036 l 11.303,11.303 v 23.311 h -54.429 l -8.9158,9.2399 h -134.44 l -27.661,-27.677 z"
         inkscape:connector-curvature="0"
         style="fill:#ee4dc0;stroke:#ee4dc0" />
      <path
         id="path3948"
         d="M 0,690.85 V 606.859 H 176.05 L 190,592.809 h 53.081 l 20.052,-20.17 h 47.462 v 30.713 l 12.291,12.291 v 30.854 h -16.1 l -43.924,44.348 z"
         inkscape:connector-curvature="0"
         style="fill:#7850db;stroke:#7850db" />
      <path
         id="path3950"
         d="m 333.87,503 h -91.266 l -5.773,5.773 h -8.7702 v 2.6842 l -38.06,37.97 v 43.392 h 53.081 l 20.052,-20.17 h 47.462 l 23.273,-23.273 z"
         inkscape:connector-curvature="0"
         style="fill:#1565cf;stroke:#1565cf" />
      <path
         id="path3952"
         d="M 0,606.86 V 483.83 h 175.46 l 13.799,13.799 H 217 l 11.058,11.138 v 2.6842 l -38.06,37.97 v 43.392 l -13.947,14.045 z"
         inkscape:connector-curvature="0"
         style="fill:#e98ec2;stroke:#e98ec2" />
      <path
         id="path3954"
         d="m 305.11,419.86 h -68.386 l -27.486,27.486 v 15.1 l 7.7637,7.7395 v 27.441 l 11.058,11.138 h 8.7702 l 5.773,-5.773 h 91.266 l 14.142,-14.142 v -26.087 z"
         inkscape:connector-curvature="0"
         style="fill:#06f121;stroke:#06f121" />
      <path
         id="path3956"
         d="m 0,483.83 v -47.194 h 189 l 11,10.713 h 9.2363 v 15.1 L 217,470.1885 v 27.441 h -27.741 l -13.799,-13.799 z"
         inkscape:connector-curvature="0"
         style="fill:#44a416;stroke:#44a416" />
      <path
         id="path3958"
         d="m 0,436.64 v -50.042 h 130.5 l 33.214,-33.779 h 2.7898 l 32.993,-32.993 h 30.409 l 77.59,77.59 v 15.855 l -2.3882,2.3882 v 4.2067 h -68.386 l -27.486,27.486 h -9.2363 l -11,-10.713 z"
         inkscape:connector-curvature="0"
         style="fill:#5a7083;stroke:#5a7083" />
      <path
         id="path3960"
         d="M 0,386.59 V 200 h 132.82 v 59.265 l 30.889,30.889 v 62.661 l -33.779,33.779 z"
         inkscape:connector-curvature="0"
         style="fill:#576fd5;stroke:#576fd5" />
    </g>
    <g
       id="g4003"
       transform="translate(0,-200)">
      <circle
         style="fill:url(#linearGradient107)"
         r="4"
         cy="258.03"
         cx="166.00999"
         id="a-9" />
      <use
         id="use3965"
         x="0"
         y="0"
         width="100%"
         height="100%"
         transform="translate(-35.765,31.143)"
         xlink:href="#a-9" />
      <use
         id="use3967"
         x="0"
         y="0"
         width="100%"
         height="100%"
         transform="translate(143.88,-5.9296)"
         xlink:href="#a-9" />
      <use
         id="use3969"
         x="0"
         y="0"
         width="100%"
         height="100%"
         transform="translate(164.18,9.9779)"
         xlink:href="#a-9" />
      <use
         id="use3971"
         x="0"
         y="0"
         width="100%"
         height="100%"
         transform="translate(180.18,53.104)"
         xlink:href="#a-9" />
      <use
         id="use3973"
         x="0"
         y="0"
         width="100%"
         height="100%"
         transform="translate(32.863,154.67)"
         xlink:href="#a-9" />
      <use
         id="use3975"
         x="0"
         y="0"
         width="100%"
         height="100%"
         transform="translate(22.826,212.14)"
         xlink:href="#a-9" />
      <use
         id="use3977"
         x="0"
         y="0"
         width="100%"
         height="100%"
         transform="translate(8.9523,253.02)"
         xlink:href="#a-9" />
      <use
         id="use3979"
         x="0"
         y="0"
         width="100%"
         height="100%"
         transform="translate(70.055,204.11)"
         xlink:href="#a-9" />
      <use
         id="use3981"
         x="0"
         y="0"
         width="100%"
         height="100%"
         transform="translate(246.07,156.85)"
         xlink:href="#a-9" />
      <use
         id="use3983"
         x="0"
         y="0"
         width="100%"
         height="100%"
         transform="translate(451.98,262.06)"
         xlink:href="#a-9" />
      <use
         id="use3985"
         x="0"
         y="0"
         width="100%"
         height="100%"
         transform="translate(509.12,277.11)"
         xlink:href="#a-9" />
      <use
         id="use3987"
         x="0"
         y="0"
         width="100%"
         height="100%"
         transform="translate(484.12,429.39)"
         xlink:href="#a-9" />
      <use
         id="use3989"
         x="0"
         y="0"
         width="100%"
         height="100%"
         transform="translate(255.19,452.06)"
         xlink:href="#a-9" />
      <use
         id="use3991"
         x="0"
         y="0"
         width="100%"
         height="100%"
         transform="translate(205.01,345)"
         xlink:href="#a-9" />
      <use
         id="use3993"
         x="0"
         y="0"
         width="100%"
         height="100%"
         transform="translate(76.017,291.04)"
         xlink:href="#a-9" />
      <use
         id="use3995"
         x="0"
         y="0"
         width="100%"
         height="100%"
         transform="translate(96,356.89)"
         xlink:href="#a-9" />
      <use
         id="use3997"
         x="0"
         y="0"
         width="100%"
         height="100%"
         transform="translate(139.8,463.01)"
         xlink:href="#a-9" />
      <use
         id="use3999"
         x="0"
         y="0"
         width="100%"
         height="100%"
         transform="translate(149.07,519.77)"
         xlink:href="#a-9" />
      <use
         id="use4001"
         x="0"
         y="0"
         width="100%"
         height="100%"
         transform="translate(-22.954,635.98)"
         xlink:href="#a-9" />
    </g>
  </g>
  <text
     xml:space="preserve"
     style="font-style:normal;font-variant:normal;font-weight:normal;font-stretch:normal;font-size:53.33333206px;line-height:1.25;font-family:Helvetica;-inkscape-font-specification:'Helvetica, Normal';font-variant-ligatures:normal;font-variant-caps:normal;font-variant-numeric:normal;font-feature-settings:normal;text-align:start;letter-spacing:0px;word-spacing:0px;writing-mode:lr-tb;text-anchor:start;fill:#000000;fill-opacity:1;stroke:none"
     x="15.442709"
     y="58.385414"
     id="text4063"><tspan
       sodipodi:role="line"
       id="tspan4061"
       x="15.442709"
       y="58.385414">Euclidean Distance</tspan></text>
  <text
     xml:space="preserve"
     style="font-style:normal;font-variant:normal;font-weight:normal;font-stretch:normal;font-size:53.33333206px;line-height:1.25;font-family:Helvetica;-inkscape-font-specification:'Helvetica, Normal';font-variant-ligatures:normal;font-variant-caps:normal;font-variant-numeric:normal;font-feature-settings:normal;text-align:start;letter-spacing:0px;word-spacing:0px;writing-mode:lr-tb;text-anchor:start;fill:#000000;fill-opacity:1;stroke:none"
     x="823.55475"
     y="58.385414"
     id="text4088"><tspan
       sodipodi:role="line"
       id="tspan4086"
       x="823.55475"
       y="58.385414">Manhattan Distance</tspan></text>
</svg>
